<?xml version="1.0" standalone="no"?>
<!DOCTYPE svg PUBLIC "-//W3C//DTD SVG 20010904//EN"
 "http://www.w3.org/TR/2001/REC-SVG-20010904/DTD/svg10.dtd">
<svg version="1.0" xmlns="http://www.w3.org/2000/svg"
 width="444.000000pt" height="444.000000pt" viewBox="0 0 444.000000 444.000000"
 preserveAspectRatio="xMidYMid meet">
<metadata>
Created by potrace 1.11, written by Peter Selinger 2001-2013
</metadata>
<g transform="translate(0.000000,444.000000) scale(0.100000,-0.100000)"
fill="#000000" stroke="none">
<path d="M1518 3705 c-1 -1 -25 -6 -53 -9 -84 -12 -120 -18 -128 -23 -4 -2
-20 -7 -35 -9 -130 -23 -437 -173 -528 -258 -7 -6 -38 -33 -70 -61 -238 -201
-420 -531 -470 -850 -23 -150 -23 -360 1 -475 2 -14 7 -38 11 -55 8 -41 43
-166 53 -190 5 -11 21 -49 35 -85 131 -319 452 -638 760 -755 42 -16 46 -20
27 -27 -55 -20 -228 11 -356 65 -144 60 -216 81 -380 112 -16 3 -62 8 -100 11
-57 5 -73 4 -83 -9 -24 -28 -10 -60 33 -81 86 -41 134 -65 237 -119 216 -113
434 -168 648 -162 138 3 215 20 304 65 49 25 83 36 102 34 60 -8 241 -5 309 5
131 19 149 23 230 46 101 30 245 91 327 141 229 138 432 350 544 569 25 49 49
93 53 98 4 4 27 -33 50 -83 42 -88 43 -91 28 -127 -9 -23 -27 -44 -48 -55 -39
-21 -44 -42 -12 -46 58 -8 122 81 172 238 83 262 82 257 46 266 -33 8 -52 -9
-50 -43 4 -62 -54 -213 -81 -213 -6 0 -19 26 -28 58 -10 31 -22 69 -27 83 -8
20 -4 49 14 120 39 145 48 205 51 349 14 549 -284 1057 -771 1312 -141 73
-289 125 -418 145 -16 2 -41 7 -55 10 -27 6 -336 13 -342 8z"/>
<path d="M3276 2438 c-107 -39 -136 -237 -47 -322 50 -48 159 -45 215 8 55 50
72 166 37 240 -36 72 -123 104 -205 74z m88 -38 c79 -29 80 -232 2 -268 -32
-14 -69 -5 -93 25 -50 62 -35 205 26 238 32 17 33 17 65 5z"/>
<path d="M4070 2432 c-42 -23 -63 -72 -48 -114 8 -21 28 -37 85 -65 83 -41
107 -66 92 -94 -16 -30 -72 -34 -124 -9 -34 16 -49 20 -57 12 -20 -20 7 -60
49 -71 113 -32 203 13 203 101 0 30 -6 42 -32 62 -18 13 -53 32 -78 41 -42 17
-80 47 -80 65 0 37 87 53 128 24 25 -17 42 -11 42 16 0 47 -114 67 -180 32z"/>
<path d="M3606 2428 c-10 -6 -15 -16 -11 -27 3 -10 7 -64 10 -120 5 -131 17
-169 61 -187 43 -18 73 -18 118 1 26 11 42 13 56 5 26 -14 65 -13 79 3 6 8 9
16 6 18 -8 8 -14 81 -16 187 -1 103 -5 113 -41 119 -26 4 -31 -12 -33 -121 -1
-115 -17 -158 -62 -173 -76 -24 -94 5 -98 161 -2 68 -8 123 -14 129 -15 15
-34 17 -55 5z"/>
<path d="M3353 1882 c-32 -5 -29 -17 17 -78 72 -95 71 -93 7 -186 -32 -46 -53
-86 -48 -91 15 -15 63 -3 75 18 37 66 57 95 67 95 5 0 27 -27 47 -60 38 -61
59 -72 106 -54 22 8 20 16 -10 50 -45 51 -84 112 -84 131 0 10 22 52 50 93 50
75 52 95 9 88 -17 -2 -32 -19 -53 -58 -15 -30 -33 -58 -39 -62 -12 -7 -49 42
-61 79 -7 23 -48 41 -83 35z"/>
</g>
</svg>
